<?xml version="1.0" encoding="UTF-8" standalone="no"?>
<!-- Created with Inkscape (http://www.inkscape.org/) -->

<svg
   xmlns:dc="http://purl.org/dc/elements/1.1/"
   xmlns:cc="http://creativecommons.org/ns#"
   xmlns:rdf="http://www.w3.org/1999/02/22-rdf-syntax-ns#"
   xmlns:svg="http://www.w3.org/2000/svg"
   xmlns="http://www.w3.org/2000/svg"
   xmlns:sodipodi="http://sodipodi.sourceforge.net/DTD/sodipodi-0.dtd"
   xmlns:inkscape="http://www.inkscape.org/namespaces/inkscape"
   width="210mm"
   height="297mm"
   viewBox="0 0 744.09448819 1052.3622047"
   id="svg2"
   version="1.1"
   inkscape:version="0.91 r13725"
   sodipodi:docname="better-logos.svg">
  <defs
     id="defs4" />
  <sodipodi:namedview
     id="base"
     pagecolor="#ffffff"
     bordercolor="#666666"
     borderopacity="1.0"
     inkscape:pageopacity="0.0"
     inkscape:pageshadow="2"
     inkscape:zoom="0.7"
     inkscape:cx="169.46799"
     inkscape:cy="490.4387"
     inkscape:document-units="px"
     inkscape:current-layer="layer1"
     showgrid="false"
     inkscape:window-width="1920"
     inkscape:window-height="1017"
     inkscape:window-x="-8"
     inkscape:window-y="-8"
     inkscape:window-maximized="1" />
  <metadata
     id="metadata7">
    <rdf:RDF>
      <cc:Work
         rdf:about="">
        <dc:format>image/svg+xml</dc:format>
        <dc:type
           rdf:resource="http://purl.org/dc/dcmitype/StillImage" />
        <dc:title />
      </cc:Work>
    </rdf:RDF>
  </metadata>
  <g
     inkscape:label="Layer 1"
     inkscape:groupmode="layer"
     id="layer1">
    <flowRoot
       xml:space="preserve"
       id="flowRoot3336"
       style="fill:black;stroke:none;stroke-opacity:1;stroke-width:1px;stroke-linejoin:miter;stroke-linecap:butt;fill-opacity:1;font-family:Lato;font-style:normal;font-weight:bold;font-size:72px;line-height:125%;letter-spacing:0px;word-spacing:0px;-inkscape-font-specification:'Lato Bold';font-stretch:normal;font-variant:normal;text-anchor:start;text-align:start;writing-mode:lr;"><flowRegion
         id="flowRegion3338"><rect
           id="rect3340"
           width="198.57143"
           height="72.85714"
           x="144.28572"
           y="322.36221"
           style="-inkscape-font-specification:'Lato Bold';font-family:Lato;font-weight:bold;font-style:normal;font-stretch:normal;font-variant:normal;" /></flowRegion><flowPara
         id="flowPara3342" /></flowRoot>    <text
       xml:space="preserve"
       style="font-style:normal;font-variant:normal;font-weight:bold;font-stretch:normal;font-size:72px;line-height:125%;font-family:Lato;-inkscape-font-specification:'Lato Bold';text-align:start;letter-spacing:0px;word-spacing:0px;writing-mode:lr-tb;text-anchor:start;fill:#000000;fill-opacity:1;stroke:none;stroke-width:1px;stroke-linecap:butt;stroke-linejoin:miter;stroke-opacity:1;"
       x="108.57143"
       y="228.07649"
       id="text3344"
       sodipodi:linespacing="125%"><tspan
         sodipodi:role="line"
         id="tspan3346"
         x="108.57143"
         y="228.07649" /></text>
    <rect
       style="fill:#000000;fill-opacity:1"
       id="rect3363"
       width="336.88586"
       height="130.30968"
       x="86.541359"
       y="94.89608" />
    <text
       xml:space="preserve"
       style="font-style:normal;font-variant:normal;font-weight:normal;font-stretch:normal;font-size:72px;line-height:125%;font-family:Sosa;-inkscape-font-specification:Sosa;text-align:start;letter-spacing:0px;word-spacing:0px;writing-mode:lr-tb;text-anchor:start;fill:#000000;fill-opacity:1;stroke:none;stroke-width:1px;stroke-linecap:butt;stroke-linejoin:miter;stroke-opacity:1"
       x="92.552574"
       y="186.08742"
       id="text3348"
       sodipodi:linespacing="125%"><tspan
         sodipodi:role="line"
         id="tspan3350"
         x="92.552574"
         y="186.08742"
         style="font-style:normal;font-variant:normal;font-weight:bold;font-stretch:normal;font-family:Lato;-inkscape-font-specification:'Lato Bold';fill:#ffffff">MDS</tspan></text>
    <path
       id="path3354"
       d="m 371.66437,133.33758 c -19.30719,0 -21.03148,6.24108 -34.01432,6.16758 -12.98282,0.0735 -14.68324,-6.16758 -34.0143,-6.16758 -12.64275,0 -26.23417,2.21846 -37.58221,4.77771 l 0,9.76925 c 1.95697,1.84425 5.96042,2.98689 5.97234,9.47522 0.0358,25.57243 9.47461,29.31441 27.46324,29.43468 24.16382,0 27.42743,-6.19431 31.4607,-27.71737 0.89495,-4.77771 3.06075,-7.67106 6.69427,-7.67106 3.63352,0 5.79932,2.90003 6.69427,7.67106 4.04521,21.52306 7.30881,27.71737 31.47264,27.71737 17.99459,-0.12026 27.4334,-3.86225 27.4692,-29.43468 0.012,-6.48833 4.01537,-7.63097 5.97234,-9.47522 l 0,-9.76925 c -11.35402,-2.55925 -24.94542,-4.77771 -37.58817,-4.77771 z m -46.5079,23.94867 c -3.34117,17.78778 -4.10487,22.99983 -25.63753,22.82609 -16.93853,-0.11367 -21.53264,-3.80881 -21.53264,-22.89291 0,-10.13007 0,-17.19975 25.64945,-17.19975 11.48527,0 18.53156,2.94682 20.94794,6.86922 1.28277,2.09149 1.47967,5.58623 0.57278,10.39735 z m 50.6247,22.82609 c -21.52669,0.17374 -22.29039,-5.03831 -25.63752,-22.82609 -0.90093,-4.81112 -0.71,-8.31254 0.57874,-10.39735 2.41041,-3.9224 9.4567,-6.86922 20.94198,-6.86922 25.64945,0 25.64945,7.06968 25.64945,17.19975 0,19.0841 -4.59411,22.77931 -21.53265,22.89291 z m -4.59411,-34.41285 c 20.51241,0 20.51241,5.65973 20.51241,13.76513 0,1.55026 -0.0716,2.88668 -0.14917,4.19636 -3.00109,-11.53331 -7.84578,-14.24624 -20.36324,-17.96149 z m -87.43725,17.96149 c -0.0835,-1.30968 -0.15512,-2.6461 -0.15512,-4.19636 0,-8.1054 0,-13.76513 20.5124,-13.76513 -12.51149,3.71525 -17.35619,6.42818 -20.35728,17.96149 z"
       inkscape:connector-curvature="0"
       style="fill:#ffffff" />
    <rect
       style="fill:#000000;fill-opacity:1"
       id="rect3363-4"
       width="336.88586"
       height="130.30968"
       x="86.557068"
       y="261.77878" />
    <text
       xml:space="preserve"
       style="font-style:normal;font-variant:normal;font-weight:normal;font-stretch:normal;font-size:72px;line-height:125%;font-family:Sosa;-inkscape-font-specification:Sosa;text-align:start;letter-spacing:0px;word-spacing:0px;writing-mode:lr-tb;text-anchor:start;fill:#000000;fill-opacity:1;stroke:none;stroke-width:1px;stroke-linecap:butt;stroke-linejoin:miter;stroke-opacity:1"
       x="251.13971"
       y="353.68442"
       id="text3348-9"
       sodipodi:linespacing="125%"><tspan
         sodipodi:role="line"
         id="tspan3350-4"
         x="251.13971"
         y="353.68442"
         style="font-style:normal;font-variant:normal;font-weight:bold;font-stretch:normal;font-family:Lato;-inkscape-font-specification:'Lato Bold';fill:#ffffff">MDS</tspan></text>
    <path
       id="path3354-2"
       d="m 207.39437,301.64886 c -19.30719,0 -21.03148,6.24108 -34.01432,6.16758 -12.98282,0.0735 -14.68324,-6.16758 -34.0143,-6.16758 -12.64275,0 -26.23417,2.21846 -37.58221,4.77771 l 0,9.76925 c 1.95697,1.84425 5.96042,2.98689 5.97234,9.47522 0.0358,25.57243 9.47461,29.31441 27.46324,29.43468 24.16382,0 27.42743,-6.19431 31.4607,-27.71737 0.89495,-4.77771 3.06075,-7.67106 6.69427,-7.67106 3.63352,0 5.79932,2.90003 6.69427,7.67106 4.04521,21.52306 7.30881,27.71737 31.47264,27.71737 17.99459,-0.12026 27.4334,-3.86225 27.4692,-29.43468 0.012,-6.48833 4.01537,-7.63097 5.97234,-9.47522 l 0,-9.76925 c -11.35402,-2.55925 -24.94542,-4.77771 -37.58817,-4.77771 z m -46.5079,23.94867 c -3.34117,17.78778 -4.10487,22.99983 -25.63753,22.82609 -16.93853,-0.11367 -21.53264,-3.80881 -21.53264,-22.89291 0,-10.13007 0,-17.19975 25.64945,-17.19975 11.48527,0 18.53156,2.94682 20.94794,6.86922 1.28277,2.09149 1.47967,5.58623 0.57278,10.39735 z m 50.6247,22.82609 c -21.52669,0.17374 -22.29039,-5.03831 -25.63752,-22.82609 -0.90093,-4.81112 -0.71,-8.31254 0.57874,-10.39735 2.41041,-3.9224 9.4567,-6.86922 20.94198,-6.86922 25.64945,0 25.64945,7.06968 25.64945,17.19975 0,19.0841 -4.59411,22.77931 -21.53265,22.89291 z m -4.59411,-34.41285 c 20.51241,0 20.51241,5.65973 20.51241,13.76513 0,1.55026 -0.0716,2.88668 -0.14917,4.19636 -3.00109,-11.53331 -7.84578,-14.24624 -20.36324,-17.96149 z m -87.43725,17.96149 c -0.0835,-1.30968 -0.15512,-2.6461 -0.15512,-4.19636 0,-8.1054 0,-13.76513 20.5124,-13.76513 -12.51149,3.71525 -17.35619,6.42818 -20.35728,17.96149 z"
       inkscape:connector-curvature="0"
       style="fill:#ffffff" />
    <rect
       style="fill:#000000;fill-opacity:1"
       id="rect3363-4-0"
       width="336.88586"
       height="130.30968"
       x="86.557068"
       y="410.20737" />
    <text
       xml:space="preserve"
       style="font-style:normal;font-variant:normal;font-weight:normal;font-stretch:normal;font-size:119.37461853px;line-height:125%;font-family:Sosa;-inkscape-font-specification:Sosa;text-align:start;letter-spacing:0px;word-spacing:0px;writing-mode:lr-tb;text-anchor:start;fill:#000000;fill-opacity:1;stroke:none;stroke-width:1px;stroke-linecap:butt;stroke-linejoin:miter;stroke-opacity:1"
       x="128.71896"
       y="496.05157"
       id="text3348-9-6"
       sodipodi:linespacing="125%"
       transform="scale(0.9578601,1.0439938)"><tspan
         sodipodi:role="line"
         id="tspan3350-4-3"
         x="128.71896"
         y="496.05157"
         style="font-style:normal;font-variant:normal;font-weight:bold;font-stretch:normal;font-family:Lato;-inkscape-font-specification:'Lato Bold';fill:#ffffff">MDS</tspan></text>
    <path
       id="path3354-2-7"
       d="m 284.64195,462.68404 c -5.55135,0 -6.04712,1.55317 -9.78005,1.53486 -3.73291,0.0183 -4.22182,-1.53486 -9.78003,-1.53486 -3.63513,0 -7.54303,0.55209 -10.8059,1.18898 l 0,2.43118 c 0.56269,0.45897 1.71378,0.74332 1.71721,2.35802 0.0104,6.36396 2.72421,7.29518 7.89643,7.32511 6.94775,0 7.88612,-1.54152 9.0458,-6.89775 0.25732,-1.18899 0.88004,-1.90902 1.92478,-1.90902 1.04474,0 1.66748,0.7217 1.92479,1.90902 1.1631,5.35623 2.10147,6.89775 9.04924,6.89775 5.17393,-0.0299 7.88785,-0.96115 7.89815,-7.32511 0.004,-1.6147 1.15451,-1.89905 1.7172,-2.35802 l 0,-2.43118 c -3.2646,-0.63689 -7.17248,-1.18898 -10.80762,-1.18898 z m -13.37228,5.95987 c -0.96069,4.42668 -1.18027,5.72375 -7.37149,5.68052 -4.87029,-0.0283 -6.19121,-0.94787 -6.19121,-5.69714 0,-2.52098 0,-4.28034 7.3749,-4.28034 3.30233,0 5.32833,0.73335 6.02312,1.70948 0.36881,0.52048 0.42543,1.39018 0.16468,2.58748 z m 14.55597,5.68052 c -6.18951,0.0433 -6.40909,-1.25384 -7.37148,-5.68052 -0.25904,-1.1973 -0.20414,-2.06866 0.16641,-2.58748 0.69304,-0.97613 2.71904,-1.70948 6.02138,-1.70948 7.37491,0 7.37491,1.75936 7.37491,4.28034 0,4.74927 -1.32093,5.66887 -6.19122,5.69714 z m -1.32094,-8.564 c 5.89789,0 5.89789,1.40847 5.89789,3.4256 0,0.3858 -0.0207,0.71838 -0.0429,1.04431 -0.8629,-2.87019 -2.25587,-3.54533 -5.85498,-4.46991 z m -25.14057,4.46991 c -0.024,-0.32593 -0.0446,-0.65851 -0.0446,-1.04431 0,-2.01713 0,-3.4256 5.89788,-3.4256 -3.5974,0.92458 -4.99038,1.59972 -5.85328,4.46991 z"
       inkscape:connector-curvature="0"
       style="fill:#ffffff" />
    <rect
       style="fill:#000000;fill-opacity:1"
       id="rect3363-4-0-2"
       width="511.17157"
       height="82.452538"
       x="80.128494"
       y="594.06458" />
    <text
       xml:space="preserve"
       style="font-style:normal;font-variant:normal;font-weight:normal;font-stretch:normal;font-size:119.37461853px;line-height:125%;font-family:Sosa;-inkscape-font-specification:Sosa;text-align:start;letter-spacing:0px;word-spacing:0px;writing-mode:lr-tb;text-anchor:start;fill:#000000;fill-opacity:1;stroke:none;stroke-width:1px;stroke-linecap:butt;stroke-linejoin:miter;stroke-opacity:1"
       x="109.56629"
       y="624.7851"
       id="text3348-9-6-8"
       sodipodi:linespacing="125%"
       transform="scale(0.9578601,1.0439938)"><tspan
         sodipodi:role="line"
         id="tspan3350-4-3-3"
         x="109.56629"
         y="624.7851"
         style="font-style:normal;font-variant:normal;font-weight:bold;font-stretch:normal;font-size:45px;font-family:Lato;-inkscape-font-specification:'Lato Bold';fill:#ffffff">Michael D Sharp</tspan></text>
    <path
       id="path3354-2-3"
       d="m 535.43082,613.77663 c -17.47738,0 -19.03826,5.49055 -30.79067,5.42588 -11.7524,0.0647 -13.29166,-5.42588 -30.79066,-5.42588 -11.44455,0 -23.74787,1.95167 -34.02042,4.20316 l 0,8.59442 c 1.7715,1.62247 5.39553,2.6277 5.40632,8.33576 0.0324,22.49716 8.57667,25.78914 24.86046,25.89495 21.87374,0 24.82805,-5.4494 28.47907,-24.38416 0.81013,-4.20315 2.77067,-6.74856 6.05983,-6.74856 3.28916,0 5.2497,2.55128 6.05984,6.74856 3.66183,18.93476 6.61613,24.38416 28.48987,24.38416 16.28919,-0.1058 24.83345,-3.39779 24.86586,-25.89495 0.0109,-5.70806 3.63482,-6.71329 5.40632,-8.33576 l 0,-8.59442 c -10.27796,-2.25149 -22.58126,-4.20316 -34.02582,-4.20316 z m -42.10019,21.06867 c -3.02452,15.64867 -3.71584,20.23394 -23.20778,20.08109 -15.33321,-0.1 -19.49193,-3.35077 -19.49193,-20.13987 0,-8.91186 0,-15.13136 23.21857,-15.13136 10.39678,0 16.77527,2.59244 18.96264,6.04315 1.1612,1.83997 1.33944,4.91444 0.5185,9.14699 z m 45.82683,20.08109 c -19.48654,0.15285 -20.17786,-4.43242 -23.20777,-20.08109 -0.81555,-4.23255 -0.64271,-7.3129 0.52389,-9.14699 2.18197,-3.45071 8.56046,-6.04315 18.95724,-6.04315 23.21857,0 23.21857,6.2195 23.21857,15.13136 0,16.7891 -4.15871,20.03993 -19.49193,20.13987 z m -4.15871,-30.27446 c 18.56838,0 18.56838,4.97911 18.56838,12.10978 0,1.36383 -0.0648,2.53953 -0.13503,3.69171 -2.71667,-10.14634 -7.10221,-12.53302 -18.43335,-15.80149 z m -79.15054,15.80149 c -0.0756,-1.15218 -0.14042,-2.32788 -0.14042,-3.69171 0,-7.13067 0,-12.10978 18.56837,-12.10978 -11.32573,3.26847 -15.71129,5.65515 -18.42795,15.80149 z"
       inkscape:connector-curvature="0"
       style="fill:#ffffff" />
    <rect
       style="fill:#000000;fill-opacity:1"
       id="rect3363-4-0-2-1"
       width="511.17157"
       height="82.452538"
       x="80.12851"
       y="696.13593" />
    <text
       xml:space="preserve"
       style="font-style:normal;font-variant:normal;font-weight:normal;font-stretch:normal;font-size:119.37461853px;line-height:125%;font-family:Sosa;-inkscape-font-specification:Sosa;text-align:start;letter-spacing:0px;word-spacing:0px;writing-mode:lr-tb;text-anchor:start;fill:#000000;fill-opacity:1;stroke:none;stroke-width:1px;stroke-linecap:butt;stroke-linejoin:miter;stroke-opacity:1"
       x="259.30481"
       y="723.64984"
       id="text3348-9-6-8-1"
       sodipodi:linespacing="125%"
       transform="scale(0.9578601,1.0439938)"><tspan
         sodipodi:role="line"
         id="tspan3350-4-3-3-6"
         x="259.30481"
         y="723.64984"
         style="font-style:normal;font-variant:normal;font-weight:bold;font-stretch:normal;font-size:45px;font-family:Lato;-inkscape-font-specification:'Lato Bold';fill:#ffffff">Michael D Sharp</tspan></text>
    <path
       id="path3354-2-3-0"
       d="m 192.57369,715.70514 c -17.47738,0 -19.03826,5.49055 -30.79067,5.42588 -11.7524,0.0647 -13.29166,-5.42588 -30.79066,-5.42588 -11.44455,0 -23.74787,1.95167 -34.020423,4.20316 l 0,8.59442 c 1.7715,1.62247 5.395533,2.6277 5.406323,8.33576 0.0324,22.49716 8.57667,25.78914 24.86046,25.89495 21.87374,0 24.82805,-5.4494 28.47907,-24.38416 0.81013,-4.20315 2.77067,-6.74856 6.05983,-6.74856 3.28916,0 5.2497,2.55128 6.05984,6.74856 3.66183,18.93476 6.61613,24.38416 28.48987,24.38416 16.28919,-0.1058 24.83345,-3.39779 24.86586,-25.89495 0.0109,-5.70806 3.63482,-6.71329 5.40632,-8.33576 l 0,-8.59442 c -10.27796,-2.25149 -22.58126,-4.20316 -34.02582,-4.20316 z m -42.10019,21.06867 c -3.02452,15.64867 -3.71584,20.23394 -23.20778,20.08109 -15.33321,-0.1 -19.49193,-3.35077 -19.49193,-20.13987 0,-8.91186 0,-15.13136 23.21857,-15.13136 10.39678,0 16.77527,2.59244 18.96264,6.04315 1.1612,1.83997 1.33944,4.91444 0.5185,9.14699 z m 45.82683,20.08109 c -19.48654,0.15285 -20.17786,-4.43242 -23.20777,-20.08109 -0.81555,-4.23255 -0.64271,-7.3129 0.52389,-9.14699 2.18197,-3.45071 8.56046,-6.04315 18.95724,-6.04315 23.21857,0 23.21857,6.2195 23.21857,15.13136 0,16.7891 -4.15871,20.03993 -19.49193,20.13987 z m -4.15871,-30.27446 c 18.56838,0 18.56838,4.97911 18.56838,12.10978 0,1.36383 -0.0648,2.53953 -0.13503,3.69171 -2.71667,-10.14634 -7.10221,-12.53302 -18.43335,-15.80149 z m -79.15054,15.80149 c -0.0756,-1.15218 -0.14042,-2.32788 -0.14042,-3.69171 0,-7.13067 0,-12.10978 18.56837,-12.10978 -11.32573,3.26847 -15.71129,5.65515 -18.42795,15.80149 z"
       inkscape:connector-curvature="0"
       style="fill:#ffffff" />
    <rect
       style="fill:#000000;fill-opacity:1"
       id="rect3363-4-0-2-1-6"
       width="511.17157"
       height="75.309677"
       x="80.128494"
       y="803.99304" />
    <text
       xml:space="preserve"
       style="font-style:normal;font-variant:normal;font-weight:normal;font-stretch:normal;font-size:168.39082336px;line-height:125%;font-family:Sosa;-inkscape-font-specification:Sosa;text-align:start;letter-spacing:0px;word-spacing:0px;writing-mode:lr-tb;text-anchor:start;fill:#000000;fill-opacity:1;stroke:none;stroke-width:1px;stroke-linecap:butt;stroke-linejoin:miter;stroke-opacity:1"
       x="90.159958"
       y="872.44733"
       id="text3348-9-6-8-1-1"
       sodipodi:linespacing="125%"
       transform="scale(1.0128879,0.98727608)"><tspan
         sodipodi:role="line"
         id="tspan3350-4-3-3-6-1"
         x="90.159958"
         y="872.44733"
         style="font-style:normal;font-variant:normal;font-weight:bold;font-stretch:normal;font-size:63.47737122px;font-family:Lato;-inkscape-font-specification:'Lato Bold';fill:#ffffff">Michael D Sharp</tspan></text>
    <path
       id="path3354-2-3-0-0"
       d="m 363.70347,832.70514 c -3.05877,0 -3.33194,0.82012 -5.38877,0.81046 -2.05682,0.01 -2.32621,-0.81046 -5.38876,-0.81046 -2.00295,0 -4.15618,0.29152 -5.95401,0.62782 l 0,1.28374 c 0.31004,0.24236 0.94429,0.3925 0.94617,1.2451 0.006,3.36039 1.50103,3.85211 4.3509,3.86792 3.82819,0 4.34523,-0.81398 4.98421,-3.64225 0.14178,-0.62782 0.4849,-1.00802 1.06055,-1.00802 0.57565,0 0.91876,0.38108 1.06054,1.00802 0.64088,2.82827 1.15791,3.64225 4.9861,3.64225 2.85082,-0.0158 4.34617,-0.50753 4.35184,-3.86792 0.002,-0.8526 0.63615,-1.00274 0.94619,-1.2451 l 0,-1.28374 c -1.79879,-0.3363 -3.95202,-0.62782 -5.95496,-0.62782 z m -7.36808,3.14701 c -0.52933,2.33743 -0.65032,3.02232 -4.06166,2.9995 -2.6835,-0.0149 -3.41134,-0.50051 -3.41134,-3.00828 0,-1.33116 0,-2.26016 4.06355,-2.26016 1.81957,0 2.93589,0.38723 3.31871,0.90266 0.20322,0.27484 0.23442,0.73407 0.0907,1.36628 z m 8.02028,2.9995 c -3.41039,0.0228 -3.53138,-0.66207 -4.06165,-2.9995 -0.14274,-0.63221 -0.11249,-1.09232 0.0917,-1.36628 0.38187,-0.51543 1.49819,-0.90266 3.31776,-0.90266 4.06354,0 4.06354,0.929 4.06354,2.26016 0,2.50777 -0.72782,2.99334 -3.41134,3.00828 z m -0.72782,-4.52208 c 3.2497,0 3.2497,0.74373 3.2497,1.80883 0,0.20372 -0.0113,0.37933 -0.0236,0.55143 -0.47545,-1.51555 -1.24297,-1.87204 -3.22607,-2.36026 z m -13.85237,2.36026 c -0.0132,-0.1721 -0.0246,-0.34771 -0.0246,-0.55143 0,-1.0651 0,-1.80883 3.2497,-1.80883 -1.98214,0.48822 -2.74968,0.84471 -3.22512,2.36026 z"
       inkscape:connector-curvature="0"
       style="fill:#ffffff" />
    <rect
       style="fill:#000000;fill-opacity:1"
       id="rect3363-4-0-4"
       width="170.71577"
       height="158.59395"
       x="112.37947"
       y="886.17181" />
    <text
       xml:space="preserve"
       style="font-style:normal;font-variant:normal;font-weight:normal;font-stretch:normal;font-size:73.0750351px;line-height:125%;font-family:Sosa;-inkscape-font-specification:Sosa;text-align:start;letter-spacing:0px;word-spacing:0px;writing-mode:lr-tb;text-anchor:start;fill:#000000;fill-opacity:1;stroke:none;stroke-width:1px;stroke-linecap:butt;stroke-linejoin:miter;stroke-opacity:1"
       x="134.85651"
       y="891.82404"
       id="text3348-9-6-0"
       sodipodi:linespacing="125%"
       transform="scale(0.90344381,1.1068757)"><tspan
         sodipodi:role="line"
         id="tspan3350-4-3-9"
         x="134.85651"
         y="891.82404"
         style="font-style:normal;font-variant:normal;font-weight:bold;font-stretch:normal;font-family:Lato;-inkscape-font-specification:'Lato Bold';fill:#ffffff">MDS</tspan></text>
    <path
       id="path3354-2-7-3"
       d="m 215.07913,951.27539 c -3.1679,0 -3.45082,1.08143 -5.58103,1.06868 -2.13021,0.0127 -2.4092,-1.06868 -5.58103,-1.06868 -2.0744,0 -4.30447,0.38441 -6.16644,0.82785 l 0,1.69275 c 0.3211,0.31957 0.97798,0.51756 0.97993,1.64182 0.006,4.43104 1.55459,5.07942 4.50615,5.10025 3.96477,0 4.50025,-1.0733 5.16202,-4.80269 0.14685,-0.82785 0.50221,-1.32919 1.0984,-1.32919 0.59618,0 0.95155,0.5025 1.09838,1.32919 0.66373,3.72939 1.19922,4.80269 5.164,4.80269 2.95253,-0.0208 4.50124,-0.66921 4.50712,-5.10025 0.003,-1.12426 0.65883,-1.32225 0.97993,-1.64182 l 0,-1.69275 c -1.86296,-0.44344 -4.09302,-0.82785 -6.16743,-0.82785 z m -7.63096,4.14967 c -0.54821,3.08217 -0.67353,3.98528 -4.20658,3.95518 -2.77925,-0.0197 -3.53304,-0.65997 -3.53304,-3.96674 0,-1.75528 0,-2.98028 4.20852,-2.98028 1.88449,0 3.04065,0.51061 3.43713,1.19026 0.21046,0.3624 0.24277,0.96794 0.094,1.80158 z m 8.30644,3.95518 c -3.53207,0.0301 -3.65738,-0.87301 -4.20657,-3.95518 -0.14782,-0.83364 -0.1165,-1.44034 0.095,-1.80158 0.39549,-0.67965 1.55164,-1.19026 3.43613,-1.19026 4.20853,0 4.20853,1.225 4.20853,2.98028 0,3.30677 -0.75379,3.94705 -3.53305,3.96674 z m -0.7538,-5.96286 c 3.36566,0 3.36566,0.98069 3.36566,2.38515 0,0.26862 -0.0118,0.50019 -0.0245,0.72712 -0.49242,-1.99843 -1.28732,-2.46851 -3.34117,-3.11227 z m -14.34659,3.11227 c -0.0137,-0.22693 -0.0255,-0.4585 -0.0255,-0.72712 0,-1.40446 0,-2.38515 3.36566,-2.38515 -2.05288,0.64376 -2.84779,1.11384 -3.3402,3.11227 z"
       inkscape:connector-curvature="0"
       style="fill:#ffffff" />
    <rect
       style="fill:#92be74;fill-opacity:1"
       id="rect3363-4-0-4-1"
       width="170.71577"
       height="158.59395"
       x="295.35641"
       y="886.99384" />
    <text
       xml:space="preserve"
       style="font-style:normal;font-variant:normal;font-weight:normal;font-stretch:normal;font-size:73.0750351px;line-height:125%;font-family:Sosa;-inkscape-font-specification:Sosa;text-align:start;letter-spacing:0px;word-spacing:0px;writing-mode:lr-tb;text-anchor:start;fill:#000000;fill-opacity:1;stroke:none;stroke-width:1px;stroke-linecap:butt;stroke-linejoin:miter;stroke-opacity:1"
       x="337.38922"
       y="897.9873"
       id="text3348-9-6-0-4"
       sodipodi:linespacing="125%"
       transform="scale(0.90344381,1.1068757)"><tspan
         sodipodi:role="line"
         id="tspan3350-4-3-9-5"
         x="337.38922"
         y="897.9873"
         style="font-style:normal;font-variant:normal;font-weight:bold;font-stretch:normal;font-family:Lato;-inkscape-font-specification:'Lato Bold';fill:#ffffff">MDS</tspan></text>
    <path
       id="path3354-2-7-3-1"
       d="m 398.05606,958.09739 c -3.1679,0 -3.45082,1.0814 -5.58103,1.0687 -2.13021,0.013 -2.4092,-1.0687 -5.58103,-1.0687 -2.0744,0 -4.30447,0.3844 -6.16644,0.8278 l 0,1.6928 c 0.3211,0.3196 0.97798,0.5176 0.97993,1.6418 0.006,4.4311 1.55459,5.0794 4.50615,5.1003 3.96477,0 4.50025,-1.0733 5.16202,-4.8027 0.14685,-0.8279 0.50221,-1.3292 1.0984,-1.3292 0.59618,0 0.95155,0.5025 1.09838,1.3292 0.66373,3.7294 1.19922,4.8027 5.164,4.8027 2.95253,-0.021 4.50124,-0.6692 4.50712,-5.1003 0.003,-1.1242 0.65883,-1.3222 0.97993,-1.6418 l 0,-1.6928 c -1.86296,-0.4434 -4.09302,-0.8278 -6.16743,-0.8278 z m -7.63096,4.1497 c -0.54821,3.0821 -0.67353,3.9852 -4.20658,3.9551 -2.77925,-0.02 -3.53304,-0.6599 -3.53304,-3.9667 0,-1.7553 0,-2.9803 4.20852,-2.9803 1.88449,0 3.04065,0.5106 3.43713,1.1903 0.21046,0.3624 0.24277,0.9679 0.094,1.8016 z m 8.30644,3.9551 c -3.53207,0.03 -3.65738,-0.873 -4.20657,-3.9551 -0.14782,-0.8337 -0.1165,-1.4404 0.095,-1.8016 0.39549,-0.6797 1.55164,-1.1903 3.43613,-1.1903 4.20853,0 4.20853,1.225 4.20853,2.9803 0,3.3068 -0.75379,3.9471 -3.53305,3.9667 z m -0.7538,-5.9628 c 3.36566,0 3.36566,0.9807 3.36566,2.3851 0,0.2687 -0.0118,0.5002 -0.0245,0.7272 -0.49242,-1.9985 -1.28732,-2.4686 -3.34117,-3.1123 z m -14.34659,3.1123 c -0.0137,-0.227 -0.0255,-0.4585 -0.0255,-0.7272 0,-1.4044 0,-2.3851 3.36566,-2.3851 -2.05288,0.6437 -2.84779,1.1138 -3.3402,3.1123 z"
       inkscape:connector-curvature="0"
       style="fill:#ffffff" />
    <rect
       style="fill:#92be74;fill-opacity:1"
       id="rect3363-4-9"
       width="336.88586"
       height="130.30968"
       x="438.65875"
       y="262.92798" />
    <text
       xml:space="preserve"
       style="font-style:normal;font-variant:normal;font-weight:normal;font-stretch:normal;font-size:72px;line-height:125%;font-family:Sosa;-inkscape-font-specification:Sosa;text-align:start;letter-spacing:0px;word-spacing:0px;writing-mode:lr-tb;text-anchor:start;fill:#000000;fill-opacity:1;stroke:none;stroke-width:1px;stroke-linecap:butt;stroke-linejoin:miter;stroke-opacity:1"
       x="603.24139"
       y="354.83362"
       id="text3348-9-8"
       sodipodi:linespacing="125%"><tspan
         sodipodi:role="line"
         id="tspan3350-4-6"
         x="603.24139"
         y="354.83362"
         style="font-style:normal;font-variant:normal;font-weight:bold;font-stretch:normal;font-family:Lato;-inkscape-font-specification:'Lato Bold';fill:#ffffff">MDS</tspan></text>
    <path
       id="path3354-2-6"
       d="m 559.49605,302.79807 c -19.30719,0 -21.03148,6.24108 -34.01432,6.16758 -12.98282,0.0735 -14.68324,-6.16758 -34.0143,-6.16758 -12.64275,0 -26.23417,2.21846 -37.58221,4.77771 l 0,9.76925 c 1.95697,1.84425 5.96042,2.98689 5.97234,9.47522 0.0358,25.57243 9.47461,29.31441 27.46324,29.43468 24.16382,0 27.42743,-6.19431 31.4607,-27.71737 0.89495,-4.77771 3.06075,-7.67106 6.69427,-7.67106 3.63352,0 5.79932,2.90003 6.69427,7.67106 4.04521,21.52306 7.30881,27.71737 31.47264,27.71737 17.99459,-0.12026 27.4334,-3.86225 27.4692,-29.43468 0.012,-6.48833 4.01537,-7.63097 5.97234,-9.47522 l 0,-9.76925 c -11.35402,-2.55925 -24.94542,-4.77771 -37.58817,-4.77771 z m -46.5079,23.94867 c -3.34117,17.78778 -4.10487,22.99983 -25.63753,22.82609 -16.93853,-0.11367 -21.53264,-3.80881 -21.53264,-22.89291 0,-10.13007 0,-17.19975 25.64945,-17.19975 11.48527,0 18.53156,2.94682 20.94794,6.86922 1.28277,2.09149 1.47967,5.58623 0.57278,10.39735 z m 50.6247,22.82609 c -21.52669,0.17374 -22.29039,-5.03831 -25.63752,-22.82609 -0.90093,-4.81112 -0.71,-8.31254 0.57874,-10.39735 2.41041,-3.9224 9.4567,-6.86922 20.94198,-6.86922 25.64945,0 25.64945,7.06968 25.64945,17.19975 0,19.0841 -4.59411,22.77931 -21.53265,22.89291 z m -4.59411,-34.41285 c 20.51241,0 20.51241,5.65973 20.51241,13.76513 0,1.55026 -0.0716,2.88668 -0.14917,4.19636 -3.00109,-11.53331 -7.84578,-14.24624 -20.36324,-17.96149 z m -87.43725,17.96149 c -0.0835,-1.30968 -0.15512,-2.6461 -0.15512,-4.19636 0,-8.1054 0,-13.76513 20.5124,-13.76513 -12.51149,3.71525 -17.35619,6.42818 -20.35728,17.96149 z"
       inkscape:connector-curvature="0"
       style="fill:#ffffff" />
    <rect
       style="fill:#92be74;fill-opacity:1"
       id="rect3363-6"
       width="336.88586"
       height="130.30968"
       x="437.27136"
       y="94.350212" />
    <text
       xml:space="preserve"
       style="font-style:normal;font-variant:normal;font-weight:normal;font-stretch:normal;font-size:72px;line-height:125%;font-family:Sosa;-inkscape-font-specification:Sosa;text-align:start;letter-spacing:0px;word-spacing:0px;writing-mode:lr-tb;text-anchor:start;fill:#000000;fill-opacity:1;stroke:none;stroke-width:1px;stroke-linecap:butt;stroke-linejoin:miter;stroke-opacity:1"
       x="443.28256"
       y="185.54156"
       id="text3348-8"
       sodipodi:linespacing="125%"><tspan
         sodipodi:role="line"
         id="tspan3350-8"
         x="443.28256"
         y="185.54156"
         style="font-style:normal;font-variant:normal;font-weight:bold;font-stretch:normal;font-family:Lato;-inkscape-font-specification:'Lato Bold';fill:#ffffff">MDS</tspan></text>
    <path
       id="path3354-8"
       d="m 722.39436,132.79172 c -19.30719,0 -21.03148,6.24108 -34.01432,6.16758 -12.98282,0.0735 -14.68324,-6.16758 -34.0143,-6.16758 -12.64275,0 -26.23417,2.21846 -37.58221,4.77771 l 0,9.76925 c 1.95697,1.84425 5.96042,2.98689 5.97234,9.47522 0.0358,25.57243 9.47461,29.31441 27.46324,29.43468 24.16382,0 27.42743,-6.19431 31.4607,-27.71737 0.89495,-4.77771 3.06075,-7.67106 6.69427,-7.67106 3.63352,0 5.79932,2.90003 6.69427,7.67106 4.04521,21.52306 7.30881,27.71737 31.47264,27.71737 17.99459,-0.12026 27.4334,-3.86225 27.4692,-29.43468 0.012,-6.48833 4.01537,-7.63097 5.97234,-9.47522 l 0,-9.76925 c -11.35402,-2.55925 -24.94542,-4.77771 -37.58817,-4.77771 z m -46.5079,23.94867 c -3.34117,17.78778 -4.10487,22.99983 -25.63753,22.82609 -16.93853,-0.11367 -21.53264,-3.80881 -21.53264,-22.89291 0,-10.13007 0,-17.19975 25.64945,-17.19975 11.48527,0 18.53156,2.94682 20.94794,6.86922 1.28277,2.09149 1.47967,5.58623 0.57278,10.39735 z m 50.6247,22.82609 c -21.52669,0.17374 -22.29039,-5.03831 -25.63752,-22.82609 -0.90093,-4.81112 -0.71,-8.31254 0.57874,-10.39735 2.41041,-3.9224 9.4567,-6.86922 20.94198,-6.86922 25.64945,0 25.64945,7.06968 25.64945,17.19975 0,19.0841 -4.59411,22.77931 -21.53265,22.89291 z m -4.59411,-34.41285 c 20.51241,0 20.51241,5.65973 20.51241,13.76513 0,1.55026 -0.0716,2.88668 -0.14917,4.19636 -3.00109,-11.53331 -7.84578,-14.24624 -20.36324,-17.96149 z m -87.43725,17.96149 c -0.0835,-1.30968 -0.15512,-2.6461 -0.15512,-4.19636 0,-8.1054 0,-13.76513 20.5124,-13.76513 -12.51149,3.71525 -17.35619,6.42818 -20.35728,17.96149 z"
       inkscape:connector-curvature="0"
       style="fill:#ffffff" />
    <rect
       style="fill:#92be74;fill-opacity:1"
       id="rect3363-4-0-9"
       width="336.88586"
       height="130.30968"
       x="440.12851"
       y="408.63596" />
    <text
       xml:space="preserve"
       style="font-style:normal;font-variant:normal;font-weight:normal;font-stretch:normal;font-size:119.37461853px;line-height:125%;font-family:Sosa;-inkscape-font-specification:Sosa;text-align:start;letter-spacing:0px;word-spacing:0px;writing-mode:lr-tb;text-anchor:start;fill:#000000;fill-opacity:1;stroke:none;stroke-width:1px;stroke-linecap:butt;stroke-linejoin:miter;stroke-opacity:1"
       x="497.84534"
       y="494.54633"
       id="text3348-9-6-82"
       sodipodi:linespacing="125%"
       transform="scale(0.9578601,1.0439938)"><tspan
         sodipodi:role="line"
         id="tspan3350-4-3-8"
         x="497.84534"
         y="494.54633"
         style="font-style:normal;font-variant:normal;font-weight:bold;font-stretch:normal;font-family:Lato;-inkscape-font-specification:'Lato Bold';fill:#ffffff">MDS</tspan></text>
    <path
       id="path3354-2-7-9"
       d="m 638.21337,461.11261 c -5.55135,0 -6.04712,1.55317 -9.78005,1.53486 -3.73291,0.0183 -4.22182,-1.53486 -9.78003,-1.53486 -3.63513,0 -7.54303,0.55209 -10.8059,1.18898 l 0,2.43118 c 0.56269,0.45897 1.71378,0.74332 1.71721,2.35802 0.0104,6.36396 2.72421,7.29518 7.89643,7.32511 6.94775,0 7.88612,-1.54152 9.0458,-6.89775 0.25732,-1.18899 0.88004,-1.90902 1.92478,-1.90902 1.04474,0 1.66748,0.7217 1.92479,1.90902 1.1631,5.35623 2.10147,6.89775 9.04924,6.89775 5.17393,-0.0299 7.88785,-0.96115 7.89815,-7.32511 0.004,-1.6147 1.15451,-1.89905 1.7172,-2.35802 l 0,-2.43118 c -3.2646,-0.63689 -7.17248,-1.18898 -10.80762,-1.18898 z m -13.37228,5.95987 c -0.96069,4.42668 -1.18027,5.72375 -7.37149,5.68052 -4.87029,-0.0283 -6.19121,-0.94787 -6.19121,-5.69714 0,-2.52098 0,-4.28034 7.3749,-4.28034 3.30233,0 5.32833,0.73335 6.02312,1.70948 0.36881,0.52048 0.42543,1.39018 0.16468,2.58748 z m 14.55597,5.68052 c -6.18951,0.0433 -6.40909,-1.25384 -7.37148,-5.68052 -0.25904,-1.1973 -0.20414,-2.06866 0.16641,-2.58748 0.69304,-0.97613 2.71904,-1.70948 6.02138,-1.70948 7.37491,0 7.37491,1.75936 7.37491,4.28034 0,4.74927 -1.32093,5.66887 -6.19122,5.69714 z m -1.32094,-8.564 c 5.89789,0 5.89789,1.40847 5.89789,3.4256 0,0.3858 -0.0207,0.71838 -0.0429,1.04431 -0.8629,-2.87019 -2.25587,-3.54533 -5.85498,-4.46991 z m -25.14057,4.46991 c -0.024,-0.32593 -0.0446,-0.65851 -0.0446,-1.04431 0,-2.01713 0,-3.4256 5.89788,-3.4256 -3.5974,0.92458 -4.99038,1.59972 -5.85328,4.46991 z"
       inkscape:connector-curvature="0"
       style="fill:#ffffff" />
    <rect
       style="fill:#92be74;fill-opacity:1"
       id="rect3363-4-9-8"
       width="389.74301"
       height="130.30968"
       x="848.65875"
       y="252.92798" />
    <text
       xml:space="preserve"
       style="font-style:normal;font-variant:normal;font-weight:normal;font-stretch:normal;font-size:72px;line-height:125%;font-family:Sosa;-inkscape-font-specification:Sosa;text-align:start;letter-spacing:0px;word-spacing:0px;writing-mode:lr-tb;text-anchor:start;fill:#000000;fill-opacity:1;stroke:none;stroke-width:1px;stroke-linecap:butt;stroke-linejoin:miter;stroke-opacity:1"
       x="1017.2414"
       y="344.83362"
       id="text3348-9-8-9"
       sodipodi:linespacing="125%"
       inkscape:export-xdpi="40.392265"
       inkscape:export-ydpi="40.392265"><tspan
         sodipodi:role="line"
         id="tspan3350-4-6-5"
         x="1017.2414"
         y="344.83362"
         style="font-style:normal;font-variant:normal;font-weight:normal;font-stretch:normal;font-family:'Sansita One';-inkscape-font-specification:'Sansita One';fill:#ffffff">MDS</tspan></text>
    <path
       id="path3354-2-6-7"
       d="m 969.49604,292.79807 c -19.30719,0 -21.03148,6.24108 -34.01432,6.16758 -12.98282,0.0735 -14.68324,-6.16758 -34.0143,-6.16758 -12.64275,0 -26.23417,2.21846 -37.58221,4.77771 l 0,9.76925 c 1.95697,1.84425 5.96042,2.98689 5.97234,9.47522 0.0358,25.57243 9.47461,29.31441 27.46324,29.43468 24.16382,0 27.42743,-6.19431 31.4607,-27.71737 0.89495,-4.77771 3.06075,-7.67106 6.69427,-7.67106 3.63352,0 5.79932,2.90003 6.69427,7.67106 4.04521,21.52306 7.30881,27.71737 31.47264,27.71737 17.99459,-0.12026 27.43343,-3.86225 27.46923,-29.43468 0.012,-6.48833 4.0153,-7.63097 5.9723,-9.47522 l 0,-9.76925 c -11.35401,-2.55925 -24.94541,-4.77771 -37.58816,-4.77771 z m -46.5079,23.94867 c -3.34117,17.78778 -4.10487,22.99983 -25.63753,22.82609 -16.93853,-0.11367 -21.53264,-3.80881 -21.53264,-22.89291 0,-10.13007 0,-17.19975 25.64945,-17.19975 11.48527,0 18.53156,2.94682 20.94794,6.86922 1.28277,2.09149 1.47967,5.58623 0.57278,10.39735 z m 50.6247,22.82609 c -21.52669,0.17374 -22.29039,-5.03831 -25.63752,-22.82609 -0.90093,-4.81112 -0.71,-8.31254 0.57874,-10.39735 2.41041,-3.9224 9.4567,-6.86922 20.94198,-6.86922 25.64945,0 25.64945,7.06968 25.64945,17.19975 0,19.0841 -4.59411,22.77931 -21.53265,22.89291 z m -4.59411,-34.41285 c 20.51241,0 20.51241,5.65973 20.51241,13.76513 0,1.55026 -0.0716,2.88668 -0.14917,4.19636 -3.00109,-11.53331 -7.84578,-14.24624 -20.36324,-17.96149 z m -87.43725,17.96149 c -0.0835,-1.30968 -0.15512,-2.6461 -0.15512,-4.19636 0,-8.1054 0,-13.76513 20.5124,-13.76513 -12.51149,3.71525 -17.35619,6.42818 -20.35728,17.96149 z"
       inkscape:connector-curvature="0"
       style="fill:#ffffff"
       inkscape:export-xdpi="40.392265"
       inkscape:export-ydpi="40.392265" />
    <rect
       style="fill:#92be74;fill-opacity:1"
       id="rect3363-6-4"
       width="336.88586"
       height="130.30968"
       x="847.27136"
       y="84.350212" />
    <text
       xml:space="preserve"
       style="font-style:normal;font-variant:normal;font-weight:normal;font-stretch:normal;font-size:72px;line-height:125%;font-family:Sosa;-inkscape-font-specification:Sosa;text-align:start;letter-spacing:0px;word-spacing:0px;writing-mode:lr-tb;text-anchor:start;fill:#000000;fill-opacity:1;stroke:none;stroke-width:1px;stroke-linecap:butt;stroke-linejoin:miter;stroke-opacity:1"
       x="853.28253"
       y="175.54156"
       id="text3348-8-6"
       sodipodi:linespacing="125%"><tspan
         sodipodi:role="line"
         id="tspan3350-8-6"
         x="853.28253"
         y="175.54156"
         style="font-style:normal;font-variant:normal;font-weight:normal;font-stretch:normal;font-family:'Sansita One';-inkscape-font-specification:'Sansita One';fill:#ffffff">MDS</tspan></text>
    <path
       id="path3354-8-0"
       d="m 1132.3944,122.79172 c -19.3072,0 -21.0315,6.24108 -34.0144,6.16758 -12.9828,0.0735 -14.6832,-6.16758 -34.0143,-6.16758 -12.6427,0 -26.2341,2.21846 -37.5822,4.77771 l 0,9.76925 c 1.957,1.84425 5.9604,2.98689 5.9724,9.47522 0.036,25.57243 9.4746,29.31441 27.4632,29.43468 24.1638,0 27.4274,-6.19431 31.4607,-27.71737 0.895,-4.77771 3.0608,-7.67106 6.6943,-7.67106 3.6335,0 5.7993,2.90003 6.6942,7.67106 4.0453,21.52306 7.3088,27.71737 31.4727,27.71737 17.9946,-0.12026 27.4334,-3.86225 27.4692,-29.43468 0.012,-6.48833 4.0153,-7.63097 5.9723,-9.47522 l 0,-9.76925 c -11.354,-2.55925 -24.9454,-4.77771 -37.5881,-4.77771 z m -46.5079,23.94867 c -3.3412,17.78778 -4.1049,22.99983 -25.6376,22.82609 -16.9385,-0.11367 -21.5326,-3.80881 -21.5326,-22.89291 0,-10.13007 0,-17.19975 25.6494,-17.19975 11.4853,0 18.5316,2.94682 20.948,6.86922 1.2827,2.09149 1.4796,5.58623 0.5728,10.39735 z m 50.6247,22.82609 c -21.5267,0.17374 -22.2904,-5.03831 -25.6376,-22.82609 -0.9009,-4.81112 -0.71,-8.31254 0.5788,-10.39735 2.4104,-3.9224 9.4567,-6.86922 20.942,-6.86922 25.6494,0 25.6494,7.06968 25.6494,17.19975 0,19.0841 -4.5941,22.77931 -21.5326,22.89291 z m -4.5942,-34.41285 c 20.5125,0 20.5125,5.65973 20.5125,13.76513 0,1.55026 -0.072,2.88668 -0.1492,4.19636 -3.0011,-11.53331 -7.8458,-14.24624 -20.3633,-17.96149 z m -87.4372,17.96149 c -0.083,-1.30968 -0.1551,-2.6461 -0.1551,-4.19636 0,-8.1054 0,-13.76513 20.5124,-13.76513 -12.5115,3.71525 -17.3562,6.42818 -20.3573,17.96149 z"
       inkscape:connector-curvature="0"
       style="fill:#ffffff" />
    <rect
       style="fill:#92be74;fill-opacity:1"
       id="rect3363-4-0-9-9"
       width="336.88586"
       height="130.30968"
       x="850.12848"
       y="398.63596" />
    <text
       xml:space="preserve"
       style="font-style:normal;font-variant:normal;font-weight:normal;font-stretch:normal;font-size:119.37461853px;line-height:125%;font-family:Sosa;-inkscape-font-specification:Sosa;text-align:start;letter-spacing:0px;word-spacing:0px;writing-mode:lr-tb;text-anchor:start;fill:#000000;fill-opacity:1;stroke:none;stroke-width:1px;stroke-linecap:butt;stroke-linejoin:miter;stroke-opacity:1"
       x="925.88281"
       y="484.96771"
       id="text3348-9-6-82-5"
       sodipodi:linespacing="125%"
       transform="scale(0.9578601,1.0439938)"><tspan
         sodipodi:role="line"
         id="tspan3350-4-3-8-0"
         x="925.88281"
         y="484.96771"
         style="font-style:normal;font-variant:normal;font-weight:bold;font-stretch:normal;font-family:Lato;-inkscape-font-specification:'Lato Bold';fill:#ffffff">MDS</tspan></text>
    <path
       id="path3354-2-7-9-6"
       d="m 1048.2134,451.11261 c -5.5514,0 -6.0472,1.55317 -9.7801,1.53486 -3.7329,0.0183 -4.2218,-1.53486 -9.78,-1.53486 -3.6352,0 -7.5431,0.55209 -10.8059,1.18898 l 0,2.43118 c 0.5627,0.45897 1.7138,0.74332 1.7172,2.35802 0.01,6.36396 2.7242,7.29518 7.8964,7.32511 6.9478,0 7.8861,-1.54152 9.0458,-6.89775 0.2573,-1.18899 0.8801,-1.90902 1.9248,-1.90902 1.0447,0 1.6675,0.7217 1.9248,1.90902 1.1631,5.35623 2.1015,6.89775 9.0492,6.89775 5.174,-0.0299 7.8879,-0.96115 7.8982,-7.32511 0,-1.6147 1.1545,-1.89905 1.7172,-2.35802 l 0,-2.43118 c -3.2646,-0.63689 -7.1725,-1.18898 -10.8076,-1.18898 z m -13.3723,5.95987 c -0.9607,4.42668 -1.1803,5.72375 -7.3715,5.68052 -4.8703,-0.0283 -6.1912,-0.94787 -6.1912,-5.69714 0,-2.52098 0,-4.28034 7.3749,-4.28034 3.3023,0 5.3283,0.73335 6.0231,1.70948 0.3688,0.52048 0.4254,1.39018 0.1647,2.58748 z m 14.556,5.68052 c -6.1896,0.0433 -6.4091,-1.25384 -7.3715,-5.68052 -0.2591,-1.1973 -0.2042,-2.06866 0.1664,-2.58748 0.693,-0.97613 2.719,-1.70948 6.0214,-1.70948 7.3749,0 7.3749,1.75936 7.3749,4.28034 0,4.74927 -1.321,5.66887 -6.1912,5.69714 z m -1.321,-8.564 c 5.8979,0 5.8979,1.40847 5.8979,3.4256 0,0.3858 -0.021,0.71838 -0.043,1.04431 -0.8629,-2.87019 -2.2559,-3.54533 -5.855,-4.46991 z m -25.1406,4.46991 c -0.024,-0.32593 -0.045,-0.65851 -0.045,-1.04431 0,-2.01713 0,-3.4256 5.8979,-3.4256 -3.5974,0.92458 -4.9904,1.59972 -5.8533,4.46991 z"
       inkscape:connector-curvature="0"
       style="fill:#ffffff" />
    <flowRoot
       xml:space="preserve"
       id="flowRoot4239"
       style="fill:black;stroke:none;stroke-opacity:1;stroke-width:1px;stroke-linejoin:miter;stroke-linecap:butt;fill-opacity:1;font-family:Sosa;font-style:normal;font-weight:normal;font-size:72px;line-height:125%;letter-spacing:0px;word-spacing:0px;-inkscape-font-specification:Sosa;font-stretch:normal;font-variant:normal;text-anchor:start;text-align:start;writing-mode:lr"><flowRegion
         id="flowRegion4241"><rect
           id="rect4243"
           width="684.28571"
           height="331.42856"
           x="21.428572"
           y="563.79077" /></flowRegion><flowPara
         id="flowPara4245"></flowPara></flowRoot>    <rect
       style="fill:#000000;fill-opacity:1"
       id="rect3363-4-0-2-0"
       width="511.17157"
       height="82.452538"
       x="650.12848"
       y="575.4574" />
    <text
       xml:space="preserve"
       style="font-style:normal;font-variant:normal;font-weight:normal;font-stretch:normal;font-size:119.37461853px;line-height:125%;font-family:Sosa;-inkscape-font-specification:Sosa;text-align:start;letter-spacing:0px;word-spacing:0px;writing-mode:lr-tb;text-anchor:start;fill:#000000;fill-opacity:1;stroke:none;stroke-width:1px;stroke-linecap:butt;stroke-linejoin:miter;stroke-opacity:1"
       x="690.02667"
       y="605.04633"
       id="text3348-9-6-8-3"
       sodipodi:linespacing="125%"
       transform="scale(0.9578601,1.0439938)"><tspan
         sodipodi:role="line"
         id="tspan3350-4-3-3-2"
         x="690.02667"
         y="605.04633"
         style="font-style:normal;font-variant:normal;font-weight:normal;font-stretch:normal;font-size:45px;font-family:'Sansita One';-inkscape-font-specification:'Sansita One';fill:#ffffff">Michael D Sharp</tspan></text>
    <path
       id="path3354-2-3-4"
       d="m 1111.4308,595.16947 c -17.4774,0 -19.0382,5.49055 -30.7906,5.42588 -11.7524,0.0647 -13.2917,-5.42588 -30.7907,-5.42588 -11.4446,0 -23.7479,1.95167 -34.0204,4.20316 l 0,8.59442 c 1.7715,1.62247 5.3955,2.6277 5.4063,8.33576 0.032,22.49716 8.5767,25.78914 24.8605,25.89495 21.8737,0 24.828,-5.4494 28.479,-24.38416 0.8101,-4.20315 2.7707,-6.74856 6.0599,-6.74856 3.2891,0 5.2497,2.55128 6.0598,6.74856 3.6618,18.93476 6.6161,24.38416 28.4899,24.38416 16.2892,-0.1058 24.8334,-3.39779 24.8658,-25.89495 0.011,-5.70806 3.6348,-6.71329 5.4063,-8.33576 l 0,-8.59442 c -10.2779,-2.25149 -22.5812,-4.20316 -34.0258,-4.20316 z m -42.1002,21.06867 c -3.0245,15.64867 -3.7158,20.23394 -23.2077,20.08109 -15.3333,-0.1 -19.492,-3.35077 -19.492,-20.13987 0,-8.91186 0,-15.13136 23.2186,-15.13136 10.3968,0 16.7753,2.59244 18.9626,6.04315 1.1612,1.83997 1.3395,4.91444 0.5185,9.14699 z m 45.8269,20.08109 c -19.4866,0.15285 -20.1779,-4.43242 -23.2078,-20.08109 -0.8156,-4.23255 -0.6427,-7.3129 0.5239,-9.14699 2.182,-3.45071 8.5604,-6.04315 18.9572,-6.04315 23.2186,0 23.2186,6.2195 23.2186,15.13136 0,16.7891 -4.1587,20.03993 -19.4919,20.13987 z m -4.1587,-30.27446 c 18.5683,0 18.5683,4.97911 18.5683,12.10978 0,1.36383 -0.065,2.53953 -0.135,3.69171 -2.7167,-10.14634 -7.1022,-12.53302 -18.4333,-15.80149 z m -79.1506,15.80149 c -0.076,-1.15218 -0.1404,-2.32788 -0.1404,-3.69171 0,-7.13067 0,-12.10978 18.5684,-12.10978 -11.3258,3.26847 -15.7113,5.65515 -18.428,15.80149 z"
       inkscape:connector-curvature="0"
       style="fill:#ffffff" />
    <rect
       style="fill:#000000;fill-opacity:1"
       id="rect3363-4-0-2-1-8"
       width="511.17157"
       height="82.452538"
       x="650.12854"
       y="677.52875" />
    <text
       xml:space="preserve"
       style="font-style:normal;font-variant:normal;font-weight:normal;font-stretch:normal;font-size:119.37461853px;line-height:125%;font-family:Sosa;-inkscape-font-specification:Sosa;text-align:start;letter-spacing:0px;word-spacing:0px;writing-mode:lr-tb;text-anchor:start;fill:#000000;fill-opacity:1;stroke:none;stroke-width:1px;stroke-linecap:butt;stroke-linejoin:miter;stroke-opacity:1"
       x="841.85321"
       y="703.91107"
       id="text3348-9-6-8-1-7"
       sodipodi:linespacing="125%"
       transform="scale(0.9578601,1.0439938)"><tspan
         sodipodi:role="line"
         id="tspan3350-4-3-3-6-9"
         x="841.85321"
         y="703.91107"
         style="font-style:normal;font-variant:normal;font-weight:normal;font-stretch:normal;font-size:45px;font-family:'Sansita One';-inkscape-font-specification:'Sansita One';fill:#ffffff">Michael D Sharp</tspan></text>
    <path
       id="path3354-2-3-0-7"
       d="m 762.57369,697.09798 c -17.47738,0 -19.03826,5.49055 -30.79067,5.42588 -11.7524,0.0647 -13.29166,-5.42588 -30.79066,-5.42588 -11.44455,0 -23.74787,1.95167 -34.02042,4.20316 l 0,8.59442 c 1.7715,1.62247 5.39553,2.6277 5.40632,8.33576 0.0324,22.49716 8.57667,25.78914 24.86046,25.89495 21.87374,0 24.82805,-5.4494 28.47907,-24.38416 0.81013,-4.20315 2.77067,-6.74856 6.05983,-6.74856 3.28916,0 5.2497,2.55128 6.05984,6.74856 3.66183,18.93476 6.61613,24.38416 28.48987,24.38416 16.28919,-0.1058 24.83345,-3.39779 24.86586,-25.89495 0.0109,-5.70806 3.63482,-6.71329 5.40632,-8.33576 l 0,-8.59442 c -10.27796,-2.25149 -22.58126,-4.20316 -34.02582,-4.20316 z m -42.10019,21.06867 c -3.02452,15.64867 -3.71584,20.23394 -23.20778,20.08109 -15.33321,-0.1 -19.49193,-3.35077 -19.49193,-20.13987 0,-8.91186 0,-15.13136 23.21857,-15.13136 10.39678,0 16.77527,2.59244 18.96264,6.04315 1.1612,1.83997 1.33944,4.91444 0.5185,9.14699 z m 45.82683,20.08109 c -19.48654,0.15285 -20.17786,-4.43242 -23.20777,-20.08109 -0.81555,-4.23255 -0.64271,-7.3129 0.52389,-9.14699 2.18197,-3.45071 8.56046,-6.04315 18.95724,-6.04315 23.21857,0 23.21857,6.2195 23.21857,15.13136 0,16.7891 -4.15871,20.03993 -19.49193,20.13987 z m -4.15871,-30.27446 c 18.56838,0 18.56838,4.97911 18.56838,12.10978 0,1.36383 -0.0648,2.53953 -0.13503,3.69171 -2.71667,-10.14634 -7.10221,-12.53302 -18.43335,-15.80149 z m -79.15054,15.80149 c -0.0756,-1.15218 -0.14042,-2.32788 -0.14042,-3.69171 0,-7.13067 0,-12.10978 18.56837,-12.10978 -11.32573,3.26847 -15.71129,5.65515 -18.42795,15.80149 z"
       inkscape:connector-curvature="0"
       style="fill:#ffffff" />
    <rect
       style="fill:#000000;fill-opacity:1"
       id="rect3363-4-0-2-1-6-8"
       width="511.17157"
       height="75.309677"
       x="650.12848"
       y="785.38586" />
    <text
       xml:space="preserve"
       style="font-style:normal;font-variant:normal;font-weight:normal;font-stretch:normal;font-size:168.39082336px;line-height:125%;font-family:Sosa;-inkscape-font-specification:Sosa;text-align:start;letter-spacing:0px;word-spacing:0px;writing-mode:lr-tb;text-anchor:start;fill:#000000;fill-opacity:1;stroke:none;stroke-width:1px;stroke-linecap:butt;stroke-linejoin:miter;stroke-opacity:1"
       x="652.90735"
       y="853.6004"
       id="text3348-9-6-8-1-1-9"
       sodipodi:linespacing="125%"
       transform="scale(1.0128879,0.98727608)"><tspan
         sodipodi:role="line"
         id="tspan3350-4-3-3-6-1-1"
         x="652.90735"
         y="853.6004"
         style="font-style:normal;font-variant:normal;font-weight:bold;font-stretch:normal;font-size:63.47737122px;font-family:Lato;-inkscape-font-specification:'Lato Bold';fill:#ffffff">Michael D Sharp</tspan></text>
    <path
       id="path3354-2-3-0-0-8"
       d="m 933.70347,814.09798 c -3.05877,0 -3.33194,0.82012 -5.38877,0.81046 -2.05682,0.01 -2.32621,-0.81046 -5.38876,-0.81046 -2.00295,0 -4.15618,0.29152 -5.95401,0.62782 l 0,1.28374 c 0.31004,0.24236 0.94429,0.3925 0.94617,1.2451 0.006,3.36039 1.50103,3.85209 4.3509,3.86789 3.82819,0 4.34523,-0.814 4.98421,-3.64222 0.14178,-0.62782 0.4849,-1.00802 1.06055,-1.00802 0.57565,0 0.91876,0.38108 1.06054,1.00802 0.64088,2.82822 1.15791,3.64222 4.9861,3.64222 2.85082,-0.016 4.34617,-0.5075 4.35184,-3.86789 0.002,-0.8526 0.63615,-1.00274 0.94619,-1.2451 l 0,-1.28374 c -1.79879,-0.3363 -3.95202,-0.62782 -5.95496,-0.62782 z m -7.36808,3.14701 c -0.52933,2.33744 -0.65032,3.02234 -4.06166,2.99954 -2.6835,-0.015 -3.41134,-0.5006 -3.41134,-3.00832 0,-1.33116 0,-2.26016 4.06355,-2.26016 1.81957,0 2.93589,0.38723 3.31871,0.90266 0.20322,0.27484 0.23442,0.73407 0.0907,1.36628 z m 8.02028,2.99954 c -3.41039,0.023 -3.53138,-0.6621 -4.06165,-2.99954 -0.14274,-0.63221 -0.11249,-1.09232 0.0917,-1.36628 0.38187,-0.51543 1.49819,-0.90266 3.31776,-0.90266 4.06354,0 4.06354,0.929 4.06354,2.26016 0,2.50772 -0.72782,2.99332 -3.41134,3.00832 z m -0.72782,-4.52212 c 3.2497,0 3.2497,0.74373 3.2497,1.80883 0,0.20372 -0.0113,0.37933 -0.0236,0.55143 -0.47545,-1.51555 -1.24297,-1.87204 -3.22607,-2.36026 z m -13.85237,2.36026 c -0.0132,-0.1721 -0.0246,-0.34771 -0.0246,-0.55143 0,-1.0651 0,-1.80883 3.2497,-1.80883 -1.98214,0.48822 -2.74968,0.84471 -3.22512,2.36026 z"
       inkscape:connector-curvature="0"
       style="fill:#ffffff" />
    <rect
       style="fill:#000000;fill-opacity:1"
       id="rect3363-4-0-2-0-9"
       width="464.02872"
       height="82.452538"
       x="601.55707"
       y="905.42163" />
    <text
       xml:space="preserve"
       style="font-style:normal;font-variant:normal;font-weight:normal;font-stretch:normal;font-size:119.37461853px;line-height:125%;font-family:Sosa;-inkscape-font-specification:Sosa;text-align:start;letter-spacing:0px;word-spacing:0px;writing-mode:lr-tb;text-anchor:start;fill:#000000;fill-opacity:1;stroke:none;stroke-width:1px;stroke-linecap:butt;stroke-linejoin:miter;stroke-opacity:1"
       x="649.75848"
       y="921.1059"
       id="text3348-9-6-8-3-2"
       sodipodi:linespacing="125%"
       transform="scale(0.9578601,1.0439938)"><tspan
         sodipodi:role="line"
         id="tspan3350-4-3-3-2-2"
         x="649.75848"
         y="921.1059"
         style="font-style:normal;font-variant:normal;font-weight:normal;font-stretch:normal;font-size:45px;font-family:'Sansita One';-inkscape-font-specification:'Sansita One';fill:#ffffff">Mike D Sharp</tspan></text>
    <path
       id="path3354-2-3-4-6"
       d="m 1018.8594,925.13372 c -17.4774,0 -19.0382,5.49055 -30.7906,5.42588 -11.7524,0.0647 -13.2917,-5.42588 -30.7907,-5.42588 -11.4446,0 -23.7479,1.95167 -34.0204,4.20316 l 0,8.59442 c 1.7715,1.62247 5.3955,2.6277 5.4063,8.33576 0.032,22.49716 8.5767,25.78914 24.8605,25.89495 21.8737,0 24.828,-5.4494 28.479,-24.38416 0.8101,-4.20315 2.7707,-6.74856 6.0599,-6.74856 3.2891,0 5.2497,2.55128 6.0598,6.74856 3.6618,18.93476 6.6161,24.38416 28.4899,24.38416 16.2892,-0.1058 24.8334,-3.39779 24.8658,-25.89495 0.011,-5.70806 3.6348,-6.71329 5.4063,-8.33576 l 0,-8.59442 c -10.2779,-2.25149 -22.5812,-4.20316 -34.0258,-4.20316 z m -42.1002,21.06867 c -3.0245,15.64867 -3.7158,20.23394 -23.2077,20.08109 -15.3333,-0.1 -19.492,-3.35077 -19.492,-20.13987 0,-8.91186 0,-15.13136 23.2186,-15.13136 10.3968,0 16.7753,2.59244 18.9626,6.04315 1.1612,1.83997 1.3395,4.91444 0.5185,9.14699 z m 45.8269,20.08109 c -19.4866,0.15285 -20.1779,-4.43242 -23.2078,-20.08109 -0.8156,-4.23255 -0.6427,-7.3129 0.5239,-9.14699 2.182,-3.45071 8.5604,-6.04315 18.9572,-6.04315 23.2186,0 23.2186,6.2195 23.2186,15.13136 0,16.7891 -4.1587,20.03993 -19.4919,20.13987 z m -4.1587,-30.27446 c 18.5683,0 18.5683,4.97911 18.5683,12.10978 0,1.36383 -0.065,2.53953 -0.135,3.69171 -2.7167,-10.14634 -7.1022,-12.53302 -18.4333,-15.80149 z m -79.1506,15.80149 c -0.076,-1.15218 -0.1404,-2.32788 -0.1404,-3.69171 0,-7.13067 0,-12.10978 18.5684,-12.10978 -11.3258,3.26847 -15.7113,5.65515 -18.428,15.80149 z"
       inkscape:connector-curvature="0"
       style="fill:#ffffff" />
    <rect
       style="fill:#000000;fill-opacity:1"
       id="rect3363-4-0-2-0-9-8"
       width="478.31442"
       height="82.452538"
       x="612.84277"
       y="1018.2788" />
    <text
       xml:space="preserve"
       style="font-style:normal;font-variant:normal;font-weight:normal;font-stretch:normal;font-size:119.37461853px;line-height:125%;font-family:Sosa;-inkscape-font-specification:Sosa;text-align:start;letter-spacing:0px;word-spacing:0px;writing-mode:lr-tb;text-anchor:start;fill:#000000;fill-opacity:1;stroke:none;stroke-width:1px;stroke-linecap:butt;stroke-linejoin:miter;stroke-opacity:1"
       x="803.8219"
       y="1030.8495"
       id="text3348-9-6-8-3-2-7"
       sodipodi:linespacing="125%"
       transform="scale(0.9578601,1.0439938)"><tspan
         sodipodi:role="line"
         id="tspan3350-4-3-3-2-2-1"
         x="803.8219"
         y="1030.8495"
         style="font-style:normal;font-variant:normal;font-weight:normal;font-stretch:normal;font-size:50px;font-family:'Sansita One';-inkscape-font-specification:'Sansita One';fill:#ffffff">Mike D Sharp</tspan></text>
    <path
       id="path3354-2-3-4-6-2"
       d="m 723.35936,1036.2766 c -17.47736,0 -19.03816,5.4905 -30.79056,5.4259 -11.7524,0.065 -13.2917,-5.4259 -30.7907,-5.4259 -11.4446,0 -23.7479,1.9517 -34.0204,4.2032 l 0,8.5944 c 1.7715,1.6224 5.3955,2.6277 5.4063,8.3357 0.032,22.4972 8.5767,25.7892 24.8605,25.895 21.8737,0 24.828,-5.4494 28.479,-24.3842 0.8101,-4.2031 2.7707,-6.7485 6.0599,-6.7485 3.2891,0 5.2497,2.5512 6.0598,6.7485 3.6618,18.9348 6.6161,24.3842 28.48986,24.3842 16.2892,-0.1058 24.8334,-3.3978 24.8658,-25.895 0.011,-5.708 3.6348,-6.7133 5.4063,-8.3357 l 0,-8.5944 c -10.2779,-2.2515 -22.5812,-4.2032 -34.0258,-4.2032 z m -42.10016,21.0687 c -3.0245,15.6486 -3.7158,20.2339 -23.2077,20.0811 -15.3333,-0.1 -19.492,-3.3508 -19.492,-20.1399 0,-8.9119 0,-15.1314 23.2186,-15.1314 10.3968,0 16.7753,2.5925 18.9626,6.0432 1.1612,1.8399 1.3395,4.9144 0.5185,9.147 z m 45.82686,20.0811 c -19.48656,0.1528 -20.17786,-4.4325 -23.20776,-20.0811 -0.8156,-4.2326 -0.6427,-7.3129 0.5239,-9.147 2.182,-3.4507 8.56036,-6.0432 18.95716,-6.0432 23.2186,0 23.2186,6.2195 23.2186,15.1314 0,16.7891 -4.1587,20.0399 -19.4919,20.1399 z m -4.1587,-30.2745 c 18.5683,0 18.5683,4.9791 18.5683,12.1098 0,1.3638 -0.065,2.5395 -0.135,3.6917 -2.7167,-10.1464 -7.1022,-12.533 -18.4333,-15.8015 z m -79.15056,15.8015 c -0.076,-1.1522 -0.1404,-2.3279 -0.1404,-3.6917 0,-7.1307 0,-12.1098 18.5684,-12.1098 -11.3258,3.2685 -15.7113,5.6551 -18.428,15.8015 z"
       inkscape:connector-curvature="0"
       style="fill:#ffffff" />
  </g>
</svg>
