<?xml version="1.0" encoding="UTF-8" standalone="no"?>
<!-- Created with Inkscape (http://www.inkscape.org/) -->

<svg
   xmlns:dc="http://purl.org/dc/elements/1.1/"
   xmlns:cc="http://creativecommons.org/ns#"
   xmlns:rdf="http://www.w3.org/1999/02/22-rdf-syntax-ns#"
   xmlns:svg="http://www.w3.org/2000/svg"
   xmlns="http://www.w3.org/2000/svg"
   xmlns:sodipodi="http://sodipodi.sourceforge.net/DTD/sodipodi-0.dtd"
   xmlns:inkscape="http://www.inkscape.org/namespaces/inkscape"
   width="210mm"
   height="297mm"
   viewBox="0 0 744.09448819 1052.3622047"
   id="svg2"
   version="1.1"
   inkscape:version="0.91 r13725"
   sodipodi:docname="crappy-logo-2.svg">
  <defs
     id="defs4" />
  <sodipodi:namedview
     id="base"
     pagecolor="#ffffff"
     bordercolor="#666666"
     borderopacity="1.0"
     inkscape:pageopacity="0.0"
     inkscape:pageshadow="2"
     inkscape:zoom="0.49497475"
     inkscape:cx="1663.7865"
     inkscape:cy="619.83614"
     inkscape:document-units="px"
     inkscape:current-layer="layer1"
     showgrid="false"
     inkscape:window-width="1920"
     inkscape:window-height="1017"
     inkscape:window-x="-8"
     inkscape:window-y="-8"
     inkscape:window-maximized="1" />
  <metadata
     id="metadata7">
    <rdf:RDF>
      <cc:Work
         rdf:about="">
        <dc:format>image/svg+xml</dc:format>
        <dc:type
           rdf:resource="http://purl.org/dc/dcmitype/StillImage" />
        <dc:title></dc:title>
      </cc:Work>
    </rdf:RDF>
  </metadata>
  <g
     inkscape:label="Layer 1"
     inkscape:groupmode="layer"
     id="layer1">
    <path
       inkscape:connector-curvature="0"
       style="fill:#ffffff"
       d="m 1097.2338,311.21935 c -28.131,0 -30.6433,15.23589 -49.5596,15.05641 -18.9162,0.17919 -21.3938,-15.05641 -49.55952,-15.05641 -18.42075,0 -38.2237,5.41577 -54.75804,11.66346 l 0,23.84886 c 2.85135,4.50227 8.68444,7.29166 8.70183,23.13111 0.0869,62.42796 13.80469,71.56296 40.01448,71.85657 35.20715,0 39.96235,-15.12165 45.83885,-67.66425 1.304,-11.6634 4.4596,-18.72675 9.7537,-18.72675 5.2941,0 8.4498,7.07962 9.7537,18.72675 5.894,52.5426 10.6491,67.66425 45.8563,67.66425 26.2185,-0.29338 39.971,-9.42861 40.0232,-71.85657 0,-15.83945 5.8505,-18.62884 8.7018,-23.13111 l 0,-23.84886 c -16.543,-6.24769 -36.346,-11.66346 -54.7667,-11.66346 z m -67.763,58.46401 c -4.8681,43.42387 -5.9809,56.14764 -37.35438,55.72351 -24.6798,-0.27757 -31.37351,-9.29814 -31.37351,-55.88665 0,-24.72974 0,-41.98839 37.37177,-41.98839 16.73432,0 27.00082,7.19381 30.52162,16.76928 1.869,5.10583 2.1559,13.63727 0.8345,25.38225 z m 73.7612,55.72351 c -31.3648,0.42396 -32.4775,-12.29964 -37.3544,-55.72351 -1.3126,-11.74498 -1.0344,-20.29276 0.8433,-25.38225 3.512,-9.57547 13.7786,-16.76928 30.5129,-16.76928 37.3717,0 37.3717,17.25865 37.3717,41.98839 0,46.58851 -6.6937,55.60932 -31.3735,55.88665 z m -6.6937,-84.0094 c 29.887,0 29.887,13.81669 29.887,33.60375 0,3.78452 -0.1043,7.04701 -0.2173,10.24426 -4.3727,-28.15536 -11.4315,-34.77824 -29.6697,-43.84801 z m -127.39783,43.84801 c -0.1217,-3.19725 -0.22602,-6.45974 -0.22602,-10.24426 0,-19.78706 0,-33.60375 29.88699,-33.60375 -18.2295,9.06977 -25.28832,15.69265 -29.66097,43.84801 z"
       id="path3364" />
    <path
       inkscape:connector-curvature="0"
       style="fill:#ffffff"
       d="m 345.49333,397.82397 c -37.28514,0 -40.615,12.72753 -65.68684,12.57764 -25.07183,0.14989 -28.35559,-12.57764 -65.68682,-12.57764 -24.41508,0 -50.66216,4.52413 -72.57698,9.74324 l 0,19.92253 c 3.77921,3.76103 11.51047,6.09124 11.53351,19.32296 0.0691,52.15017 18.29691,59.78124 53.03569,60.02652 46.66403,0 52.96656,-12.63214 60.75542,-56.52441 1.72829,-9.74323 5.91078,-15.64368 12.92767,-15.64368 7.01689,0 11.19936,5.91407 12.92766,15.64368 7.81191,43.89227 14.11443,56.52441 60.77847,56.52441 34.7503,-0.24528 52.97808,-7.87635 53.04721,-60.02652 0.023,-13.23172 7.7543,-15.56193 11.53351,-19.32296 l 0,-19.92253 c -21.92634,-5.21911 -48.17342,-9.74324 -72.5885,-9.74324 z m -89.81387,48.83884 c -6.45231,36.27482 -7.92712,46.9038 -49.50996,46.54951 -32.71092,-0.23166 -41.58284,-7.76734 -41.58284,-46.68579 0,-20.65839 0,-35.07566 49.53301,-35.07566 22.17982,0 35.78728,6.00947 40.45369,14.00847 2.47722,4.26522 2.85744,11.39209 1.1061,21.20347 z m 97.76404,46.54951 c -41.57132,0.35429 -43.04613,-10.27469 -49.50997,-46.54951 -1.73982,-9.81138 -1.37111,-16.95188 1.11763,-21.20347 4.65488,-7.999 18.26235,-14.00847 40.44217,-14.00847 49.53301,0 49.53301,14.41727 49.53301,35.07566 0,38.91845 -8.87193,46.45413 -41.58284,46.68579 z m -8.87193,-70.17857 c 39.61258,0 39.61258,11.54199 39.61258,28.07143 0,3.16144 -0.13826,5.88682 -0.28805,8.55769 -5.79555,-23.52004 -15.15141,-29.05256 -39.32453,-36.62912 z M 175.7169,459.66287 c -0.16132,-2.67087 -0.29958,-5.39625 -0.29958,-8.55769 0,-16.52944 0,-28.07143 39.61258,-28.07143 -24.1616,7.57656 -33.51745,13.10908 -39.313,36.62912 z"
       id="path3364-5" />
    <rect
       style="fill:#ffffff;fill-opacity:1"
       id="rect3393"
       width="319.20819"
       height="436.38589"
       x="264.65997"
       y="207.87468" />
    <rect
       style="fill:#000000;fill-opacity:1"
       id="rect3395"
       width="448.50772"
       height="418.20316"
       x="113.13708"
       y="405.86456" />
    <text
       xml:space="preserve"
       style="font-style:normal;font-variant:normal;font-weight:normal;font-stretch:normal;font-size:72px;line-height:125%;font-family:Signika;-inkscape-font-specification:Signika;text-align:start;letter-spacing:0px;word-spacing:0px;writing-mode:lr-tb;text-anchor:start;fill:#ffffff;fill-opacity:1;stroke:none;stroke-width:1px;stroke-linecap:butt;stroke-linejoin:miter;stroke-opacity:1;"
       x="256.57874"
       y="603.85449"
       id="text3397"
       sodipodi:linespacing="125%"><tspan
         sodipodi:role="line"
         id="tspan3399"
         x="256.57874"
         y="603.85449" /></text>
    <text
       xml:space="preserve"
       style="font-style:normal;font-variant:normal;font-weight:normal;font-stretch:normal;font-size:72px;line-height:125%;font-family:Signika;-inkscape-font-specification:Signika;text-align:start;letter-spacing:0px;word-spacing:0px;writing-mode:lr-tb;text-anchor:start;fill:#ffffff;fill-opacity:1;stroke:none;stroke-width:1px;stroke-linecap:butt;stroke-linejoin:miter;stroke-opacity:1;"
       x="335.37064"
       y="666.48395"
       id="text3401"
       sodipodi:linespacing="125%"><tspan
         sodipodi:role="line"
         id="tspan3403"
         x="335.37064"
         y="666.48395" /></text>
    <text
       xml:space="preserve"
       style="font-style:normal;font-variant:normal;font-weight:normal;font-stretch:normal;font-size:202.90794373px;line-height:125%;font-family:Sosa;-inkscape-font-specification:Sosa;text-align:start;letter-spacing:0px;word-spacing:0px;writing-mode:lr-tb;text-anchor:start;fill:#000000;fill-opacity:1;stroke:none;stroke-width:1px;stroke-linecap:butt;stroke-linejoin:miter;stroke-opacity:1"
       x="128.22293"
       y="640.01373"
       id="text3405"
       sodipodi:linespacing="125%"
       transform="scale(1.1091405,0.90159904)"><tspan
         sodipodi:role="line"
         id="tspan3407"
         x="128.22293"
         y="640.01373"
         style="font-style:normal;font-variant:normal;font-weight:normal;font-stretch:normal;font-family:Signika;-inkscape-font-specification:Signika;fill:#ffffff">M</tspan></text>
    <text
       xml:space="preserve"
       style="font-style:normal;font-variant:normal;font-weight:normal;font-stretch:normal;font-size:202.90794373px;line-height:125%;font-family:Sosa;-inkscape-font-specification:Sosa;text-align:start;letter-spacing:0px;word-spacing:0px;writing-mode:lr-tb;text-anchor:start;fill:#000000;fill-opacity:1;stroke:none;stroke-width:1px;stroke-linecap:butt;stroke-linejoin:miter;stroke-opacity:1"
       x="336.78824"
       y="638.11493"
       id="text3405-2"
       sodipodi:linespacing="125%"
       transform="scale(1.1091405,0.90159904)"><tspan
         sodipodi:role="line"
         id="tspan3407-0"
         x="336.78824"
         y="638.11493"
         style="font-style:normal;font-variant:normal;font-weight:normal;font-stretch:normal;font-family:Signika;-inkscape-font-specification:Signika;fill:#ffffff">D</tspan></text>
    <text
       xml:space="preserve"
       style="font-style:normal;font-variant:normal;font-weight:normal;font-stretch:normal;font-size:72px;line-height:125%;font-family:Sosa;-inkscape-font-specification:Sosa;text-align:start;letter-spacing:0px;word-spacing:0px;writing-mode:lr-tb;text-anchor:start;fill:#000000;fill-opacity:1;stroke:none;stroke-width:1px;stroke-linecap:butt;stroke-linejoin:miter;stroke-opacity:1"
       x="200.01019"
       y="714.97125"
       id="text3427"
       sodipodi:linespacing="125%"><tspan
         sodipodi:role="line"
         id="tspan3429"
         x="200.01019"
         y="714.97125" /></text>
    <text
       xml:space="preserve"
       style="font-style:normal;font-variant:normal;font-weight:normal;font-stretch:normal;font-size:202.90794373px;line-height:125%;font-family:Sosa;-inkscape-font-specification:Sosa;text-align:start;letter-spacing:0px;word-spacing:0px;writing-mode:lr-tb;text-anchor:start;fill:#000000;fill-opacity:1;stroke:none;stroke-width:1px;stroke-linecap:butt;stroke-linejoin:miter;stroke-opacity:1"
       x="148.78027"
       y="839.78717"
       id="text3405-2-1"
       sodipodi:linespacing="125%"
       transform="scale(1.1091405,0.90159904)"><tspan
         sodipodi:role="line"
         id="tspan3407-0-7"
         x="148.78027"
         y="839.78717"
         style="font-style:normal;font-variant:normal;font-weight:normal;font-stretch:normal;font-family:Signika;-inkscape-font-specification:Signika;fill:#ffffff">S</tspan></text>
    <path
       inkscape:connector-curvature="0"
       style="fill:#ffffff"
       d="m 479.33336,664.36211 c -27.75138,0 -30.2298,9.42534 -48.8908,9.31433 -18.66101,0.11101 -21.10512,-9.31433 -48.8908,-9.31433 -18.17217,0 -37.70792,3.35033 -54.01914,7.21533 l 0,14.75359 c 2.81287,2.78522 8.56726,4.51084 8.5844,14.30956 0.0858,38.61969 13.61842,44.27086 39.47454,44.4525 34.7321,0 39.42308,-9.35469 45.22035,-41.85901 1.28637,-7.21533 4.3994,-11.5849 9.62208,-11.5849 5.22267,0 8.3357,4.37966 9.62207,11.5849 5.81442,32.50432 10.50539,41.85901 45.2375,41.85901 25.86469,-0.18164 39.43166,-5.83281 39.48312,-44.4525 0,-9.79872 5.77153,-11.52434 8.5844,-14.30956 l 0,-14.75359 c -16.3198,-3.865 -35.85554,-7.21533 -54.02772,-7.21533 z m -66.84858,36.16748 c -4.80247,26.86323 -5.90017,34.7345 -36.85034,34.47213 -24.34678,-0.17156 -30.95016,-5.75208 -30.95016,-34.57304 0,-15.29853 0,-25.9752 36.86748,-25.9752 16.50847,0 26.63653,4.4503 30.10974,10.37394 1.8438,3.1586 2.1268,8.43638 0.82328,15.70217 z m 72.7659,34.47213 c -30.94159,0.26237 -32.03929,-7.6089 -36.85034,-34.47213 -1.29494,-7.26579 -1.02052,-12.55367 0.83186,-15.70217 3.46463,-5.92364 13.59269,-10.37394 30.10116,-10.37394 36.86748,0 36.86748,10.67667 36.86748,25.9752 0,28.82096 -6.60339,34.40148 -30.95016,34.57304 z m -6.60338,-51.97057 c 29.48369,0 29.48369,8.54739 29.48369,20.78823 0,2.34119 -0.10289,4.35947 -0.21439,6.33738 -4.31365,-17.4177 -11.27722,-21.5148 -29.2693,-27.12561 z m -125.67877,27.12561 c -0.12007,-1.97791 -0.22298,-3.99619 -0.22298,-6.33738 0,-12.24084 0,-20.78823 29.4837,-20.78823 -17.98351,5.61081 -24.94709,9.70791 -29.26072,27.12561 z"
       id="path3364-9" />
  </g>
</svg>
